# AST/ASF file generated using VICON BodyLanguage
# -----------------------------------------------
:version 1.10
:name VICON
:units
  mass 1.0
  length 0.45
  angle deg
:documentation
   .ast/.asf automatically generated from VICON data using
   VICON BodyBuilder and BodyLanguage model FoxedUp or BRILLIANT.MOD
:root
   order TX TY TZ RX RY RZ
   axis XYZ
   position 0 0 0  
   orientation 0 0 0 
:bonedata
  begin
     id 1 
     name lhipjoint
     direction 0.650112 -0.723553 0.232005 
     length 2.45805 
     axis 0 0 0  XYZ
  end
  begin
     id 2 
     name lfemur
     direction 0.34202 -0.939693 0  
     length 7.00073  
     axis 0 0 20  XYZ
    dof rx ry rz
    limits (-160.0 20.0)
           (-70.0 70.0)
           (-60.0 70.0)
  end
  begin
     id 3 
     name ltibia
     direction 0.34202 -0.939693 0   
     length 7.8748   
     axis 0 0 20   XYZ
    dof rx
    limits (-10.0 170.0)
  end
  begin
     id 4 
     name lfoot
     direction 0.0542825 -0.14914 0.987325   
     length 1.75978   
     axis -90 7.62852e-016 20   XYZ
    dof rx rz
    limits (-45.0 90.0)
           (-70.0 20.0)
  end
  begin
     id 5 
     name ltoes
     direction 1.53509e-011 -4.21906e-011 1   
     length 0.893912   
     axis -90 7.62852e-016 20   XYZ
    dof rx
    limits (-90.0 20.0)
  end
  begin
     id 6 
     name rhipjoint
     direction -0.637897 -0.733345 0.235145   
     length 2.42522  
     axis 0 0 0  XYZ 
  end
  begin
     id 7 
     name rfemur
     direction -0.34202 -0.939693 0   
     length 7.02549   
     axis 0 0 -20   XYZ
    dof rx ry rz
    limits (-160.0 20.0)
           (-70.0 70.0)
           (-70.0 60.0)
  end
  begin
     id 8 
     name rtibia
     direction -0.34202 -0.939693 0   
     length 7.71512   
     axis 0 0 -20   XYZ
    dof rx
    limits (-10.0 170.0)
 end
 begin
     id 9 
     name rfoot
     direction -0.0822618 -0.226012 0.970645   
     length 1.90014  
     axis -90 -7.62852e-016 -20   XYZ
    dof rx rz
    limits (-45.0 90.0)
           (-20.0 70.0)
  end
  begin
     id 10 
     name rtoes
     direction -1.53542e-011 -4.21872e-011 1   
     length 0.957341   
     axis -90 -7.62852e-016 -20   XYZ
    dof rx
    limits (-90.0 20.0)
  end
  begin
     id 11 
     name lowerback
     direction -0.0022947 0.999774 -0.0211557   
     length 1.89909   
     axis 0 0 0   XYZ
    dof rx ry rz
    limits (-20.0 45.0)
           (-30.0 30.0)
           (-30.0 30.0)
  end
  begin
     id 12 
     name upperback
     direction 0.0107737 0.998635 0.0511027   
     length 1.8853   
     axis 0 0 0   XYZ
    dof rx ry rz
    limits (-20.0 45.0)
           (-30.0 30.0)
           (-30.0 30.0)
  end
  begin
     id 13 
     name thorax
     direction 0.011824 0.998136 0.0598754   
     length 1.88911   
     axis 0 0 0   XYZ
    dof rx ry rz
    limits (-20.0 45.0)
           (-30.0 30.0)
           (-30.0 30.0)
  end
  begin
     id 14 
     name lowerneck
     direction -0.0685355 0.990319 0.120714   
     length 1.91222   
     axis 0 0 0   XYZ
    dof rx ry rz
    limits (-20.0 45.0)
           (-30.0 30.0)
           (-30.0 30.0)
  end
  begin
     id 15 
     name upperneck
     direction 0.0886204 0.955665 -0.280805   
     length 1.92526   
     axis 0 0 0   XYZ
    dof rx ry rz
    limits (-20.0 45.0)
           (-30.0 30.0)
           (-30.0 30.0)
  end
  begin
     id 16
     name head
     direction 0.0233423 0.993502 -0.111393  
     length 1.96056  
     axis 0 0 0   XYZ
    dof rx ry rz
    limits (-20.0 45.0)
           (-30.0 30.0)
           (-30.0 30.0)
  end
  begin
     id 17 
     name lclavicle
     direction 0.941873 0.32922 0.0670041  
     length 3.31705  
     axis 0 0 0   XYZ
    dof ry rz
    limits (-20.0 10.0)
           (0.0 20.0)
  end
  begin
     id 18 
     name lhumerus
     direction 1 -4.4898e-011 3.38707e-028   
     length 5.29277   
     axis 180 -30 -90   XYZ
    dof rx ry rz
    limits (-60.0 90.0)
           (-90.0 90.0)
           (-90.0 90.0)
  end
  begin
     id 19
     name lradius
     direction 1 -4.48952e-011 1.63213e-028   
     length 2.85226   
     axis 180 -30 -90   XYZ
    dof rx
    limits (-10.0 170.0)
  end
  begin
     id 20
     name lwrist
     direction 1 -4.49001e-011 1.27856e-027   
     length 1.42613   
     axis -1.61767e-015 90 90   XYZ
    dof ry
    limits (-180.0 0.0)
 end
  begin
     id 21 
     name lhand
     direction 1 -4.48976e-011 2.55931e-027   
     length 0.602097   
     axis -1.63363e-015 90 90   XYZ
    dof rx rz
    limits (-90.0 90.0)
           (-45.0 45.0)
  end
  begin
     id 22 
     name lfingers
     direction 1 -4.48986e-011 5.11684e-027   
     length 0.485426   
     axis -3.26723e-015 90 90   XYZ
    dof rx
    limits (0.0 90.0)
  end
  begin
     id 23
     name lthumb
     direction 0.707107 -6.34915e-011 0.707107   
     length 0.696978   
     axis -90 45 -2.25915e-014   XYZ
    dof rx rz
    limits (-45.0 45.0)
           (-45.0 45.0)
  end
  begin
     id 24 
     name rclavicle
     direction -0.939974 0.327078 0.0973096   
     length 3.10337  
     axis 0 0 0   XYZ 
    dof ry rz
    limits (-10.0 20.0)
           (-20.0 0.0)
  end
  begin
     id 25 
     name rhumerus
     direction -1 -4.48975e-011 1.83745e-027  
     length 5.13304   
     axis 180 30 90   XYZ
    dof rx ry rz
    limits (-90.0 60.0)
           (-90.0 90.0)
           (-90.0 90.0)
  end
  begin
     id 26 
     name rradius
     direction -1 -4.48977e-011 7.1775e-029   
     length 2.74305   
     axis 180 30 90   XYZ
    dof rx
    limits (-10.0 170.0)
  end
  begin
     id 27 
     name rwrist
     direction -1 -4.48977e-011 1.27963e-027   
     length 1.37152   
     axis -1.61767e-015 -90 -90   XYZ
    dof ry
    limits (-180.0 0.0)
  end
  begin
     id 28
     name rhand
     direction -1 -4.4888e-011 2.56782e-027   
     length 0.767976   
     axis -1.63363e-015 -90 -90   XYZ
    dof rx rz
    limits (-90.0 90.0)
           (-45.0 45.0)
  end
  begin
     id 29
     name rfingers
     direction -1 -4.48947e-011 5.12384e-027   
     length 0.619162   
     axis -3.26723e-015 -90 -90   XYZ
    dof rx
    limits (0.0 90.0)
  end
  begin
     id 30
     name rthumb
     direction -0.707107 -6.34857e-011 0.707107   
     length 0.888997   
     axis -90 -45 2.25915e-014   XYZ
    dof rx rz
    limits (-45.0 45.0)
           (-45.0 45.0)
  end
:hierarchy
  begin
    root lhipjoint rhipjoint lowerback
    lhipjoint lfemur
    lfemur ltibia
    ltibia lfoot
    lfoot ltoes
    rhipjoint rfemur
    rfemur rtibia
    rtibia rfoot
    rfoot rtoes
    lowerback upperback
    upperback thorax
    thorax lowerneck lclavicle rclavicle
    lowerneck upperneck
    upperneck head
    lclavicle lhumerus
    lhumerus lradius
    lradius lwrist
    lwrist lhand lthumb
    lhand lfingers
    rclavicle rhumerus
    rhumerus rradius
    rradius rwrist
    rwrist rhand rthumb
    rhand rfingers
  end

#!OML:ASF F:\VICON\USERDATA\INSTALL\rory3\rory3.ASF
:FULLY-SPECIFIED
:DEGREES
1058
root 0.175927 17.2724 0.319387 4.26234 4.55477 -0.450787
lowerback 3.59909 -0.658885 -1.71396
upperback 2.91465 -0.918046 0.0157032
thorax 1.00013 -0.485158 1.0006
lowerneck -7.23657 -11.694 -18.8359
upperneck 15.6466 -17.3255 20.1313
head 9.64316 -7.93627 7.90081
rclavicle -2.25621e-014 -3.37934e-015
rhumerus -29.613 -34.7687 -13.8952
rradius 40.9032
rwrist 6.77393
rhand -7.54807 10.8662
rfingers 7.12502
rthumb 18.3436 -18.2889
lclavicle -2.25621e-014 -3.37934e-015
lhumerus -25.9568 41.0145 32.1452
lradius 31.1099
lwrist 9.6097
lhand 0.840106 25.5242
lfingers 7.12502
lthumb 26.3948 53.7069
rfemur -7.02344 8.25868 18.7472
rtibia 19.6394
rfoot -15.2287 -13.702
rtoes -12.5197
lfemur -12.3963 -12.8784 -16.5381
ltibia 24.794
lfoot -16.0983 3.78825
ltoes -16.7596
1059
root 0.178591 17.2712 0.303629 4.41328 4.80544 -0.405909
lowerback 3.65672 -0.694624 -1.79829
upperback 3.02145 -0.967564 0.0243506
thorax 1.08099 -0.512638 1.05783
lowerneck -7.45333 -11.7821 -18.8258
upperneck 15.52 -17.4561 20.3913
head 9.69982 -7.96779 7.95779
rclavicle 1.02374e-014 3.97569e-016
rhumerus -30.112 -34.0965 -15.5191
rradius 40.8293
rwrist 6.69127
rhand -8.08226 11.0463
rfingers 7.12502
rthumb 17.8297 -18.1564
lclavicle 1.02374e-014 3.97569e-016
lhumerus -25.9246 40.7651 34.0574
lradius 30.521
lwrist 8.8531
lhand 0.649617 25.5012
lfingers 7.12502
lthumb 26.2124 53.7111
rfemur -7.28492 8.06824 18.6721
rtibia 19.779
rfoot -15.2488 -13.8002
rtoes -12.4952
lfemur -12.7553 -12.8905 -16.5243
ltibia 24.9287
lfoot -15.9939 3.71208
ltoes -17.8176
1060
root 0.18354 17.271 0.292278 4.54123 5.12498 -0.378968
lowerback 3.67519 -0.755925 -1.83423
upperback 3.11799 -1.04925 0.0424797
thorax 1.17368 -0.55563 1.09795
lowerneck -7.53339 -11.8592 -18.8403
upperneck 15.3217 -17.5844 20.6845
head 9.71218 -8.00758 8.03625
rclavicle 9.0447e-015 -6.95746e-015
rhumerus -30.5952 -33.8564 -17.0685
rradius 40.601
rwrist 7.18482
rhand -8.24504 11.1341
rfingers 7.12502
rthumb 17.673 -18.0827
lclavicle 9.0447e-015 -6.95746e-015
lhumerus -25.8691 39.8675 36.1675
lradius 30.0701
lwrist 8.62905
lhand 0.480627 25.6557
lfingers 7.12502
lthumb 26.0506 53.8895
rfemur -7.4941 7.80193 18.6265
rtibia 19.9516
rfoot -15.326 -13.8804
rtoes -12.6192
lfemur -13.0725 -12.9522 -16.5062
ltibia 25.0652
lfoot -15.9287 3.58428
ltoes -19.1499
1061
root 0.19175 17.2687 0.277892 4.67773 5.25425 -0.328169
lowerback 3.81337 -0.752564 -1.79364
upperback 3.10465 -1.04618 -0.0189304
thorax 1.08071 -0.55179 1.01447
lowerneck -7.37761 -11.8758 -18.7598
upperneck 15.0254 -17.6468 20.9279
head 9.61589 -8.03231 8.10159
rclavicle -4.47266e-016 5.56597e-015
rhumerus -31.1797 -33.5754 -18.6109
rradius 40.2459
rwrist 8.05465
rhand -8.15419 11.5114
rfingers 7.12502
rthumb 17.7605 -17.6975
lclavicle -4.47266e-016 5.56597e-015
lhumerus -26.0118 39.0833 37.9973
lradius 29.5938
lwrist 7.49696
lhand 1.16498 25.5655
lfingers 7.12502
lthumb 26.7057 53.7011
rfemur -7.76437 7.62676 18.5056
rtibia 20.1297
rfoot -15.4327 -13.7717
rtoes -11.9984
lfemur -13.3776 -12.9451 -16.5461
ltibia 25.2104
lfoot -15.9706 3.4682
ltoes -19.2941
1062
root 0.199004 17.2667 0.2613 4.76396 5.31832 -0.428675
lowerback 4.10849 -0.714608 -1.58925
upperback 3.02501 -0.99613 -0.0559226
thorax 0.828035 -0.520535 0.865873
lowerneck -7.17825 -11.883 -18.7651
upperneck 14.7823 -17.7131 21.2332
head 9.54702 -8.0624 8.20823
rclavicle -2.13694e-015 -1.39149e-015
rhumerus -31.8652 -32.5988 -20.3054
rradius 40.0837
rwrist 8.41025
rhand -8.21877 11.5663
rfingers 7.12502
rthumb 17.6983 -17.6482
lclavicle -2.13694e-015 -1.39149e-015
lhumerus -26.3302 38.3891 39.6557
lradius 29.0975
lwrist 5.7833
lhand 1.76978 24.6386
lfingers 7.12502
lthumb 27.2844 52.6846
rfemur -8.01659 7.48027 18.5615
rtibia 20.2888
rfoot -15.4059 -13.6894
rtoes -12.117
lfemur -13.6614 -12.9491 -16.4214
ltibia 25.3971
lfoot -16.0188 3.3729
ltoes -19.0229
1063
root 0.202815 17.2638 0.247651 4.8529 5.42236 -0.501745
lowerback 4.2467 -0.745854 -1.60467
upperback 3.07205 -1.04025 0.0149312
thorax 0.8022 -0.543504 0.950238
lowerneck -7.22947 -11.8848 -18.7841
upperneck 14.5311 -17.7016 21.4244
head 9.49354 -8.04831 8.27505
rclavicle -4.12478e-015 -8.74653e-015
rhumerus -32.1152 -31.4921 -22.2939
rradius 39.9634
rwrist 8.61826
rhand -8.38868 11.5061
rfingers 7.12502
rthumb 17.5348 -17.7231
lclavicle -4.12478e-015 -8.74653e-015
lhumerus -26.7311 37.6584 41.4648
lradius 28.844
lwrist 4.50998
lhand 1.47607 23.7932
lfingers 7.12502
lthumb 27.0034 51.8831
rfemur -8.25217 7.35546 18.6149
rtibia 20.452
rfoot -15.3752 -13.7378
rtoes -12.4382
lfemur -13.9703 -12.9498 -16.3132
ltibia 25.62
lfoot -16.0518 3.28625
ltoes -19.2237
1064
root 0.203737 17.2608 0.234132 4.98492 5.52482 -0.596625
lowerback 4.35352 -0.821074 -1.73266
upperback 3.10586 -1.14629 0.157166
thorax 0.786263 -0.599876 1.17278
lowerneck -7.3238 -11.8575 -18.7667
upperneck 14.312 -17.627 21.507
head 9.42811 -8.00621 8.30543
rclavicle -1.88845e-015 -9.74045e-015
rhumerus -32.0444 -31.0322 -24.2671
rradius 39.5144
rwrist 9.40166
rhand -8.26364 11.8473
rfingers 7.12502
rthumb 17.6551 -17.3711
lclavicle -1.88845e-015 -9.74045e-015
lhumerus -27.232 36.7202 43.3632
lradius 28.8619
lwrist 3.92981
lhand 1.38206 23.8319
lfingers 7.12502
lthumb 26.9135 51.9357
rfemur -8.54445 7.31983 18.6927
rtibia 20.6141
rfoot -15.3637 -13.7986
rtoes -12.082
lfemur -14.3494 -12.8699 -16.1511
ltibia 25.8633
lfoot -16.0676 3.06636
ltoes -18.6724
1065
root 0.205444 17.2571 0.22302 5.03698 5.61962 -0.757881
lowerback 4.51958 -0.890055 -1.71363
upperback 3.13937 -1.24023 0.281734
thorax 0.733794 -0.647453 1.29582
lowerneck -7.40437 -11.8348 -18.7888
upperneck 14.1469 -17.5681 21.5987
head 9.38715 -7.97281 8.3455
rclavicle -2.08724e-014 2.5842e-015
rhumerus -31.9578 -30.914 -26.1502
rradius 38.8931
rwrist 10.5716
rhand -7.78422 11.8398
rfingers 7.12502
rthumb 18.1165 -17.3365
lclavicle -2.08724e-014 2.5842e-015
lhumerus -27.5776 35.7473 45.3663
lradius 28.7943
lwrist 3.52928
lhand 1.74531 23.8614
lfingers 7.12502
lthumb 27.261 51.9111
rfemur -8.75392 7.22884 18.8503
rtibia 20.8049
rfoot -15.3748 -13.7976
rtoes -12.0286
lfemur -14.6214 -12.8396 -15.9472
ltibia 26.1105
lfoot -16.1266 2.99028
ltoes -18.9747
1066
root 0.206465 17.2538 0.211828 5.08669 5.6993 -0.790152
lowerback 4.67227 -0.891218 -1.79119
upperback 3.21711 -1.24649 0.351071
thorax 0.73241 -0.652919 1.41264
lowerneck -7.55106 -11.8926 -18.8285
upperneck 13.9883 -17.6197 21.7191
head 9.39202 -7.98538 8.3746
rclavicle 1.963e-014 5.76476e-015
rhumerus -32.0681 -30.7217 -27.9391
rradius 38.2953
rwrist 11.5167
rhand -7.24039 11.7939
rfingers 7.12502
rthumb 18.6396 -17.3331
lclavicle 1.963e-014 5.76476e-015
lhumerus -27.6074 34.8517 47.5396
lradius 28.548
lwrist 2.58801
lhand 1.90667 23.7022
lfingers 7.12502
lthumb 27.4153 51.7275
rfemur -8.9599 7.15654 18.8754
rtibia 21.0221
rfoot -15.4408 -13.8152
rtoes -12.3591
lfemur -14.8749 -12.7619 -15.889
ltibia 26.361
lfoot -16.165 2.8733
ltoes -19.5182
